HIERARCHY
ROOT Hips
{
	OFFSET -14.64140 90.27770 -84.91600
	CHANNELS 6 Xposition Yposition Zposition Zrotation Xrotation Yrotation
	JOINT Spine
	{
		OFFSET 0.00000 13.20850 -1.60436
		CHANNELS 3 Zrotation Xrotation Yrotation
		JOINT Spine1
		{
			OFFSET 0.00000 8.61716 0.00000
			CHANNELS 3 Zrotation Xrotation Yrotation
			JOINT Spine2
			{
				OFFSET 0.00000 8.61717 0.00000
				CHANNELS 3 Zrotation Xrotation Yrotation
				JOINT Spine3
				{
					OFFSET 0.00000 8.61717 0.00000
					CHANNELS 3 Zrotation Xrotation Yrotation
					JOINT Neck
					{
						OFFSET 0.00000 11.07920 1.10792
						CHANNELS 3 Zrotation Xrotation Yrotation
						JOINT Neck1
						{
							OFFSET 0.00000 7.08032 0.00000
							CHANNELS 3 Zrotation Xrotation Yrotation
							JOINT Head
							{
								OFFSET 0.00000 7.08031 0.00000
								CHANNELS 3 Zrotation Xrotation Yrotation
								End site
								{
									OFFSET 0.00000 0.00000 0.00000
								}
							}
						}
					}
					JOINT RightShoulder
					{
						OFFSET -0.01000 7.91373 5.19711
						CHANNELS 3 Zrotation Xrotation Yrotation
						JOINT RightArm
						{
							OFFSET -18.41580 0.00000 0.00000
							CHANNELS 3 Zrotation Xrotation Yrotation
							JOINT RightForeArm
							{
								OFFSET -29.11090 0.00000 0.00000
								CHANNELS 3 Zrotation Xrotation Yrotation
								JOINT RightHand
								{
									OFFSET -24.65040 0.00000 0.00000
									CHANNELS 3 Zrotation Xrotation Yrotation
									JOINT RightHandThumb1
									{
										OFFSET -5.35114 -0.85590 3.97906
										CHANNELS 3 Zrotation Xrotation Yrotation
										JOINT RightHandThumb2
										{
											OFFSET -4.52789 0.00000 0.00000
											CHANNELS 3 Zrotation Xrotation Yrotation
											JOINT RightHandThumb3
											{
												OFFSET -2.46976 0.00000 0.00000
												CHANNELS 3 Zrotation Xrotation Yrotation
												End site
												{
													OFFSET 0.00000 0.00000 0.00000
												}
											}
										}
									}
									JOINT RightHandIndex1
									{
										OFFSET -14.26970 0.00000 2.88139
										CHANNELS 3 Zrotation Xrotation Yrotation
										JOINT RightHandIndex2
										{
											OFFSET -5.48836 0.00000 0.00000
											CHANNELS 3 Zrotation Xrotation Yrotation
											JOINT RightHandIndex3
											{
												OFFSET -3.01859 0.00000 0.00000
												CHANNELS 3 Zrotation Xrotation Yrotation
												End site
												{
													OFFSET 0.00000 0.00000 0.00000
												}
											}
										}
									}
									JOINT RightHandMiddle1
									{
										OFFSET -14.26970 0.00000 -0.09147
										CHANNELS 3 Zrotation Xrotation Yrotation
										JOINT RightHandMiddle2
										{
											OFFSET -6.17441 0.00000 0.00000
											CHANNELS 3 Zrotation Xrotation Yrotation
											JOINT RightHandMiddle3
											{
												OFFSET -3.56743 0.00000 0.00000
												CHANNELS 3 Zrotation Xrotation Yrotation
												End site
												{
													OFFSET 0.00000 0.00000 0.00000
												}
											}
										}
									}
									JOINT RightHandRing1
									{
										OFFSET -12.69180 0.00000 -3.06433
										CHANNELS 3 Zrotation Xrotation Yrotation
										JOINT RightHandRing2
										{
											OFFSET -5.62556 0.00000 0.00000
											CHANNELS 3 Zrotation Xrotation Yrotation
											JOINT RightHandRing3
											{
												OFFSET -3.56744 0.00000 0.00000
												CHANNELS 3 Zrotation Xrotation Yrotation
												End site
												{
													OFFSET 0.00000 0.00000 0.00000
												}
											}
										}
									}
									JOINT RightHandPinky1
									{
										OFFSET -11.11390 0.00000 -6.03719
										CHANNELS 3 Zrotation Xrotation Yrotation
										JOINT RightHandPinky2
										{
											OFFSET -4.52789 0.00000 0.00000
											CHANNELS 3 Zrotation Xrotation Yrotation
											JOINT RightHandPinky3
											{
												OFFSET -2.46976 0.00000 0.00000
												CHANNELS 3 Zrotation Xrotation Yrotation
												End site
												{
													OFFSET 0.00000 0.00000 0.00000
												}
											}
										}
									}
								}
							}
						}
					}
					JOINT LeftShoulder
					{
						OFFSET 0.01000 7.91373 5.19711
						CHANNELS 3 Zrotation Xrotation Yrotation
						JOINT LeftArm
						{
							OFFSET 18.41580 0.00000 0.00000
							CHANNELS 3 Zrotation Xrotation Yrotation
							JOINT LeftForeArm
							{
								OFFSET 29.11090 0.00000 0.00000
								CHANNELS 3 Zrotation Xrotation Yrotation
								JOINT LeftHand
								{
									OFFSET 24.65040 0.00000 0.00000
									CHANNELS 3 Zrotation Xrotation Yrotation
									JOINT LeftHandThumb1
									{
										OFFSET 5.35114 -0.85590 3.97906
										CHANNELS 3 Zrotation Xrotation Yrotation
										JOINT LeftHandThumb2
										{
											OFFSET 4.52789 0.00000 0.00000
											CHANNELS 3 Zrotation Xrotation Yrotation
											JOINT LeftHandThumb3
											{
												OFFSET 2.46977 0.00000 0.00000
												CHANNELS 3 Zrotation Xrotation Yrotation
												End site
												{
													OFFSET 0.00000 0.00000 0.00000
												}
											}
										}
									}
									JOINT LeftHandIndex1
									{
										OFFSET 14.26970 0.00000 2.88139
										CHANNELS 3 Zrotation Xrotation Yrotation
										JOINT LeftHandIndex2
										{
											OFFSET 5.48836 0.00000 0.00000
											CHANNELS 3 Zrotation Xrotation Yrotation
											JOINT LeftHandIndex3
											{
												OFFSET 3.01859 0.00000 0.00000
												CHANNELS 3 Zrotation Xrotation Yrotation
												End site
												{
													OFFSET 0.00000 0.00000 0.00000
												}
											}
										}
									}
									JOINT LeftHandMiddle1
									{
										OFFSET 14.26970 0.00000 -0.09147
										CHANNELS 3 Zrotation Xrotation Yrotation
										JOINT LeftHandMiddle2
										{
											OFFSET 6.17440 0.00000 0.00000
											CHANNELS 3 Zrotation Xrotation Yrotation
											JOINT LeftHandMiddle3
											{
												OFFSET 3.56744 0.00000 0.00000
												CHANNELS 3 Zrotation Xrotation Yrotation
												End site
												{
													OFFSET 0.00000 0.00000 0.00000
												}
											}
										}
									}
									JOINT LeftHandRing1
									{
										OFFSET 12.69180 0.00000 -3.06433
										CHANNELS 3 Zrotation Xrotation Yrotation
										JOINT LeftHandRing2
										{
											OFFSET 5.62556 0.00000 0.00000
											CHANNELS 3 Zrotation Xrotation Yrotation
											JOINT LeftHandRing3
											{
												OFFSET 3.56744 0.00000 0.00000
												CHANNELS 3 Zrotation Xrotation Yrotation
												End site
												{
													OFFSET 0.00000 0.00000 0.00000
												}
											}
										}
									}
									JOINT LeftHandPinky1
									{
										OFFSET 11.11390 0.00000 -6.03719
										CHANNELS 3 Zrotation Xrotation Yrotation
										JOINT LeftHandPinky2
										{
											OFFSET 4.52789 0.00000 0.00000
											CHANNELS 3 Zrotation Xrotation Yrotation
											JOINT LeftHandPinky3
											{
												OFFSET 2.46976 0.00000 0.00000
												CHANNELS 3 Zrotation Xrotation Yrotation
												End site
												{
													OFFSET 0.00000 0.00000 0.00000
												}
											}
										}
									}
								}
							}
						}
					}
					JOINT pCube4
					{
						OFFSET 0.00000 10.91090 1.10792
						CHANNELS 3 Zrotation Xrotation Yrotation
						End site
						{
							OFFSET 0.00000 0.00000 0.00000
						}
					}
				}
			}
		}
	}
	JOINT RightUpLeg
	{
		OFFSET -9.98441 0.00000 0.00000
		CHANNELS 3 Zrotation Xrotation Yrotation
		JOINT RightLeg
		{
			OFFSET 0.00000 -42.11790 0.00000
			CHANNELS 3 Zrotation Xrotation Yrotation
			JOINT RightFoot
			{
				OFFSET 0.00000 -45.00020 -0.00001
				CHANNELS 3 Zrotation Xrotation Yrotation
				JOINT RightForeFoot
				{
					OFFSET 0.00000 -3.74820 0.00000
					CHANNELS 3 Zrotation Xrotation Yrotation
					JOINT RightToeBase
					{
						OFFSET 0.00000 0.06325 14.43120
						CHANNELS 3 Zrotation Xrotation Yrotation
						End site
						{
							OFFSET 0.00000 0.00000 0.00000
						}
					}
				}
			}
		}
	}
	JOINT LeftUpLeg
	{
		OFFSET 9.98441 0.00000 0.00000
		CHANNELS 3 Zrotation Xrotation Yrotation
		JOINT LeftLeg
		{
			OFFSET 0.00000 -42.11800 0.00000
			CHANNELS 3 Zrotation Xrotation Yrotation
			JOINT LeftFoot
			{
				OFFSET 0.00000 -45.00070 0.00000
				CHANNELS 3 Zrotation Xrotation Yrotation
				JOINT LeftForeFoot
				{
					OFFSET 0.00000 -3.74824 0.00000
					CHANNELS 3 Zrotation Xrotation Yrotation
					JOINT LeftToeBase
					{
						OFFSET 0.00000 0.06325 14.43110
						CHANNELS 3 Zrotation Xrotation Yrotation
						End site
						{
							OFFSET 0.00000 0.00000 0.00000
						}
					}
				}
			}
		}
	}
}
MOTION
Frames: 4
Frame Time: 0.050000
0.02678893378819791 -0.011836939795432648 -0.008659046469959073 -0.016038382658847296 0.04085425368852133 0.0053382590667736506 2.053935267959288 1.2848471213591095 -1.8393057624846267 -0.8575362653655713 3.563931984329105 0.39059868651815943 -1.1730240542482646 -1.4685044684793156 0.21637550858268967 0.45784588666631365 -0.14623759493693428 -0.48875778096468653 1.8289103150413575 13.70305911994924 -5.179764989116783 0.37901108189503724 0.47219922601326453 -12.4124624520374 2.066186586163728 -15.007780003031407 -1.025732814329681 -11.879396338601246 3.757624409122796 -17.273488044820546 72.26360530358194 -15.044818544356357 22.894936990161423 15.132177717793635 2.1625941971294167 94.22114474650569 2.3773042929522794 -0.09495554852793314 -0.2809255996652905 4.522692519790202 -0.15788044417311448 -1.632457476989218 0.04611683812358935 -0.04380934021109266 -56.21565038500842 -0.004110677667968303 0.015145953119548928 -56.218080487436836 -38.81938024448836 -0.02109319736946254 0.019950539379840697 0.012437284574621663 -0.0380192994201597 0.007820262403986367 -0.027872708307561847 0.009653270085828608 -0.02925080840663274 -36.70263107366431 0.010548957947814087 -0.010682845149935534 -0.0454835664654018 -0.0019352679153146043 -0.031311837847528404 0.03865234617118508 -0.041156280542477386 -0.02937280300472367 -19.77137623458158 0.03988200160062964 -0.022856474183097667 -0.0026013695995926837 -0.015246676872848676 -0.04700603867568594 0.017499630009963137 0.007223136478372015 0.023623347440530258 24.06206515847014 0.020646525645546393 -0.038324054460756964 28.82617092948464 0.039664188673580306 -0.026401954786684608 28.864251552766685 -0.004093023092211022 0.027889562663335647 7.63051555204675 1.881492016540861 13.328876409915415 -71.33100460858765 22.01410347251769 -11.485104690246033 -16.50508454550312 3.1103023835938886 -66.07857224355926 -11.968540285293326 -1.8317174157474192 0.6935888575117675 -0.4760184701354515 0.061409974059430536 -8.088985331265842 0.018486807268617754 0.01714720811209715 44.54827524692275 0.04836044914062373 -0.005946726443403088 44.53343402054441 12.493606954606344 0.02369973003049097 -0.005221631666439846 -0.027204339537699455 0.03605183960442489 -0.04319570085710055 0.006888655552339803 -0.00982140476547566 -0.01295843464520411 11.092229291243122 -0.024759012876590998 -0.04927024494529306 0.01760228667164366 0.0008542138962919068 -0.010210656437408998 0.008553693905987493 0.04100732529270754 0.04853044647379606 4.7270030175730176 0.04031565858812324 0.03668711023589462 0.022467400818828736 -0.012806639342811982 0.028776365471349857 -0.018331491507116767 0.018084134009761325 0.013000249863784768 -5.632652596353629 0.038754982654975435 0.03669474767781821 -6.757140702187732 -0.008167268050546081 -0.041514324988802566 -6.678527185434762 -0.03466075290256075 0.015209943591191887 0.008928946483177427 -0.03461381884651419 0.028200248536985908 8.07617775575236 3.5317999328184886 -19.22834164753077 -0.030686775883769436 10.433776543073595 0.018429969369082734 -5.654011067267514 -15.64496693072719 3.1886029733042673 -0.03746439979837839 0.014850174524766087 0.04282501747871023 -0.0032958062770691017 4.700948480948231 -0.0048840910376155115 12.411966705036532 -8.27628145487312 6.896340300245452 0.017590191111992868 46.3911014326369 0.026450616159439132 -4.280914789037959 -14.773334120854672 -3.8296727032829887 -0.0327381790236252 0.007566906537778786 -0.03938749546846907 0.012863810782943555 -10.718477968905267 -0.028567560214836765 
0.019556876131079887 0.02346114877194985 0.025874491506713945 0.04744425814363118 -0.006647561517465827 0.005149852298715528 2.2950046550691012 1.1833544293038454 -1.9089010672003708 -0.8810201513080772 3.574114394435767 0.40004931878322153 -1.1848775089428396 -1.4798421171181635 0.4663677669691972 0.4211644701160808 -0.10792701615794616 -0.467248238598446 1.9230089405247355 13.782879934098776 -5.306916790788425 0.3262819960015143 0.5371398169537257 -12.86432040264481 2.0922734178262106 -14.946012788700049 -1.0789246173915354 -12.236112212585594 3.8048010280398588 -17.462347727480605 71.753682335896 -14.800671464851469 23.6792713247298 12.562559487563535 1.8600642907264255 92.95661837462825 2.4062592318323928 -0.07884513427192512 -0.2726246066487885 4.550479550262194 -0.16713248543750137 -1.578135935757664 -0.005627648500458975 -0.049127090059702255 -56.21973919850746 -0.0037306059211627144 -0.004206574811184017 -56.23726701534339 -38.72329665213246 0.038993692481997654 -0.022912258319767058 -0.01813072726023959 0.008800814714060884 0.03558258877752968 -0.028547230916584947 0.04812853403746494 -0.006103213592164249 -36.64477046491479 -0.02388789427857605 0.013863732702095698 -0.01199243050330705 0.0015046651482208174 0.041536573928436606 -0.00848987850843237 0.027051480020327097 0.03072865623125329 -19.782528789559006 -0.02713128345741674 0.011902237304280734 -0.031996843551000756 0.004986434502150599 0.03372553462602654 0.010103865235621434 -0.04378794592564282 0.014120964894533692 24.068489969347354 -0.018080017631164024 -0.012319871210707956 28.88129957571138 -0.0029395698844726058 -0.024149603645178482 28.81908728470175 0.02778851231889326 -0.04604229037490671 7.6233130409909435 1.8640915039618406 13.568347940638407 -71.32303834284387 21.930827680664333 -10.457853852980508 -9.271810507470837 0.0618445815699102 -59.510822202524295 -12.396964453034505 -1.4313868859828363 0.7375732492727267 -0.45903147137639866 0.09132070320475134 -8.085884255016575 0.03884704081768372 0.02988113975025429 44.57554490605597 -0.02720990478748809 -0.005106087923076367 44.57540687781541 12.435241345748095 -0.04402322446057374 -0.017670023081479153 0.0416924165349867 -0.021855911486578276 0.018119562946354664 -0.01425696513960809 0.031820926253233704 0.021984241339999967 11.122953153897349 0.046401205004528705 -0.04517501664999784 -0.03742320641045179 -0.020224168590029155 0.018047633745189376 0.02633408420240045 -0.027869119978591657 -0.012377785093921172 4.820065513953746 0.04829841181491383 0.015707185052635485 -0.03547651821577263 0.005275824229296921 0.010739192460756495 -0.017713378229452098 -0.009606749664052104 0.002768936738225905 -5.642915296627933 -0.009893211134772865 -0.0188826592738682 -6.740985846825543 0.017459488672308583 0.04549709266617712 -6.75686168991096 -0.020138812613566048 0.01875511147106497 2.8707858249513543e-05 0.005792119237477493 0.033015067718346815 8.007673153208648 3.4737104476127896 -19.242891106420025 -0.03451774992046154 10.379277467813303 0.014855129822655098 -5.601905579218643 -15.623077569932596 3.1640958646506205 -0.02003713394483807 -0.012048196847983039 0.02048765166190671 -0.02836225747307265 4.706499853129813 -0.03742719000140969 12.437155166311475 -8.264375443565484 6.8683750298812205 -0.004209599157236874 46.41886142361316 0.029790552419970216 -4.327382367470724 -14.740598961659225 -3.855460947861569 0.041386365025857914 -0.026974341481301446 0.020668394470969204 0.016420440376382295 -10.792448829225734 0.022508445298887268 
0.02423079743824129 0.023513310890893594 -0.041319308036395413 0.0349563667602381 0.036238650508911174 -0.015037678985965808 2.7931244559188038 1.194950295862821 -1.9326834871486192 -0.8668712097532167 3.5752089676530567 0.43753514095919155 -1.1563265472462643 -1.4924896205839981 0.8141357967579017 0.46241302021282726 -0.17669488848378492 -0.44493045722179375 1.926365816879095 13.847041820723076 -5.481247272859054 0.31563212060795814 0.5275470400932736 -13.320744429173144 2.138421019393895 -15.00238292810442 -1.0708604004883606 -12.614037040486494 3.937580641128123 -17.653524602169558 71.54871819472999 -14.946371668480268 24.423701518293914 10.121228319758474 1.5118845010362243 91.78240690520899 2.145015313567491 -0.10373683431590713 -0.17719640193253142 4.49749564979664 -0.10024477848677282 -1.62673640032802 -0.013004519896743345 0.04508402127058373 -56.185967488318155 -0.018824663529050427 0.031020053572856882 -56.219787680322824 -38.76536829141704 -0.013811698782093937 0.008225050749220359 0.00022858053150246553 0.018812877369026378 0.012940711886058305 0.03202845907434847 0.03612113504140424 -0.0010564144708830314 -36.65690926870934 -0.012442705698080592 0.02270144594017739 -0.03156148361956312 -0.04029115348144603 -0.039391503869970076 0.0029965705894554285 0.030191925565690243 0.02428404169346053 -19.732049552632432 0.026023934094631898 0.020076080156084874 0.0196099895092817 0.01763726290585888 -0.003236259890247406 0.03973816336547481 -0.03529349411411394 -0.026431591235341417 24.074840614128604 -0.01749130388809411 -0.045458147953819986 28.86744495587125 0.024165456647374777 -0.03621794516031724 28.82829727637153 0.007014652757884985 -0.01316501286790061 7.539237078046224 1.8252565820768725 13.753707491388488 -71.64494473237495 21.562645089661213 -9.584275732484837 -3.3173673924901275 -2.8419680298843524 -53.74267938328432 -12.965675088843007 -1.0157441876684252 0.7577111656599335 -0.4870925273961147 0.07681052146031603 -8.082508664401091 -0.014174514765810447 0.01990826156097588 44.595748643069626 -0.023779414441042153 -0.037951280180123864 44.604417577240625 12.42036041678541 -0.010263619433017375 0.004440935194903431 -0.009616055226859294 0.025109139757439274 -0.02218465984521525 0.04606720594441841 0.03727209103527265 -0.0294593166382332 11.136453495405574 0.04778414022535834 -0.03699600293812188 0.02394286493059672 -0.009468696481269048 0.017065491475066887 0.04201272171702895 -0.009070441425735666 -0.010666498560819596 4.770769424945515 0.013816078861373671 0.046337855922165716 -0.03696743862613605 0.020090899674501488 0.04312657893774617 -0.00248677130967503 0.0005840006251644902 0.007500457968859844 -5.620504264715217 -0.01782229615791396 0.04520131278553712 -6.734665165079462 0.012305589325595927 -0.007810919304548638 -6.717541380744647 -0.03277790366645957 0.007221715226099974 -0.04153119131179706 0.017406358457287524 -0.033017881026740914 8.082324548679503 3.540946061584515 -19.221758646486613 0.020363025700183203 10.424063559858748 -0.0021748935205654664 -5.623245855782987 -15.693679468415487 3.2168006991622167 0.010289066661773318 0.04168995459209249 0.02080765993273515 -0.013164907309526215 4.670397696683878 0.030945859209953176 12.472327951354822 -8.23188702796434 6.864441501289003 0.00792427439567213 46.40542162477694 -0.0012842737331262117 -4.364979236847233 -14.74470691966036 -3.825923096318531 -0.01858184347652499 -0.002156567966666059 -0.0053065246259646984 0.044118796218595 -10.714189268056835 0.02769994919911478 
-0.04501068967299908 0.01934839146735391 -0.013833970378850563 0.015413122091787966 -0.019536717922840112 0.04799809515525327 3.251539444405086 1.3082221532215366 -2.0568701871705124 -0.8856240271622586 3.604707175703525 0.38730044133603103 -1.1224549579459915 -1.4000956288505377 1.0866239217014961 0.3929825083143039 -0.27129734327582467 -0.32467502154517003 2.0519918781446895 13.816067017748692 -5.6119967693611725 0.30139183715176243 0.4369804022946976 -13.736359873160584 2.1653074217210193 -15.197524055305117 -1.1468313346705834 -13.150198284232939 4.0786440320461255 -17.93164949341716 71.74949552668643 -16.00604311172879 25.081152000658626 8.918125163802644 1.1795146104099348 90.85051368611498 1.8995159345183368 -0.10845122871731246 -0.1067962075759361 4.513815271686133 -0.15935618763190396 -1.6047413667231771 -0.014290038225701338 0.03714066814404299 -56.19429231127149 0.020450777304319774 0.03402236971759335 -56.21652291321597 -38.81422223434379 0.03202506538186295 -0.009521912939284205 0.025253309612702515 0.04283458806950745 -0.04089348606384623 0.0017648111928231628 0.015000228894574918 0.018627227794782195 -36.65076636115728 0.02503759925504629 0.014306030060096927 0.009144493670085236 0.0296224697950357 -0.03327002629129835 0.006777198073546055 0.007088570440101617 0.021027834222280554 -19.766975897184242 0.0017282772816659016 0.018345751544619274 0.02037803395668567 0.04377310964281528 0.01992773141511437 0.04916274323232165 -0.011168844034644883 -0.018252809341711036 24.043803121473214 -0.005082099555727235 -0.029540860745502794 28.843816783650677 -0.04032424903360974 -0.021094390917253847 28.892001127470845 0.04533272941077153 0.0063540222125260245 7.654037690669692 1.8637898755902382 13.979712704706738 -72.03214881770883 20.72793775624935 -9.053713795590763 -0.9415268088372225 -3.6706526368663335 -49.952092731825296 -13.5644149063446 -0.793144314848148 0.7983703627894637 -0.42918847856222575 0.10684926415888046 -8.149162563822754 0.003371948132076479 -0.020021169605200437 44.54144654622005 0.00045144228978838375 -0.03100435042020573 44.520576587529554 12.46584356628153 0.018254443092350123 0.01436957919873855 -0.012388501193786608 0.023708725904330315 0.007074874039432375 -0.012942591682075039 0.047014255589420156 -0.04670751367535932 11.13446245564726 -0.03136590180281315 0.03655028892822791 0.027543631252608437 -0.016248556870395246 -0.01229616853189525 -0.03245231924144481 0.002768892593817117 0.022072525190211193 4.757956333325947 0.013772320636781469 -0.0030980310327710383 0.045962448147928846 -0.024641966469923837 0.026515075045718428 0.025256428917312397 0.039531339142263616 0.04642753599720826 -5.649556227999343 -0.039105160733299935 0.022215404792185006 -6.719253312830534 -0.03557660288951625 0.018963063256155245 -6.711679156357397 0.020139442093479457 -0.011172201832137152 0.039538166590070443 0.013111902895358742 0.045312739572682635 8.015632014220493 3.529777509608394 -19.200946565866886 0.00974765747334508 10.37131124291801 0.0174970041131862 -5.659984631212333 -15.637900737604403 3.1779242147281654 -0.00543609963652399 -0.04320022045765125 0.023011349870409356 0.011045989528425615 4.681630760309339 -0.008736561646184844 12.497300106068314 -8.226711578328544 6.851413318016862 0.01297123345318465 46.36064524194013 0.03990257506337576 -4.320560792624749 -14.773230794589 -3.820275681289242 -0.03544450685091469 -0.026209881830618082 -0.01195388522661231 -7.704618584491368e-05 -10.760676405765786 -0.025629694584124764 
